<?xml version="1.0" encoding="UTF-8"?>
<svg version="1.1" xmlns="http://www.w3.org/2000/svg" width="170" height="158">
<path d="M0 0 C0.495 2.97 0.495 2.97 1 6 C-1.297221 7.74271938 -3.59866729 9.39911152 -6 11 C-5.22922119 11.28198242 -4.45844238 11.56396484 -3.66430664 11.85449219 C-0.76154378 12.9181199 2.14017875 13.98452874 5.04125977 15.05273438 C6.89717824 15.7351733 8.75424141 16.41449659 10.61132812 17.09375 C16.57029341 19.29000821 22.43198288 21.51955035 28.14111328 24.30957031 C34.71942095 26.75289236 42.03890584 22.56645581 48 20 C49.60198943 19.34878478 51.20617535 18.70294711 52.8125 18.0625 C53.62203125 17.73765625 54.4315625 17.4128125 55.265625 17.078125 C59.6298973 15.35735478 64.02038695 13.7052684 68.41015625 12.05078125 C70.88902833 11.24076569 70.88902833 11.24076569 72 10 C69.69 8.68 67.38 7.36 65 6 C65 4.35 65 2.7 65 1 C70.20550735 -0.60169457 73.07437185 0.5900518 77.70703125 2.92578125 C79.86105933 3.93490855 81.75966491 4.40816463 84.0625 4.9375 C90.325716 7.19575119 93.01548732 14.4773761 96 20 C96.78117187 21.39605469 96.78117187 21.39605469 97.578125 22.8203125 C98.42689041 24.33735872 99.26586282 25.85997567 100.08984375 27.390625 C100.89813197 28.98726954 100.89813197 28.98726954 102 30 C102.04080783 31.99958364 102.04254356 34.00045254 102 36 C100.58521865 36.64995297 99.16808513 37.29478722 97.75 37.9375 C96.96109375 38.29714844 96.1721875 38.65679687 95.359375 39.02734375 C93 40 93 40 89 41 C88.67 52.55 88.34 64.1 88 76 C82.48988349 78.44894067 77.18865426 80.74659997 71.5625 82.8125 C65.5631653 85.03293019 59.58647936 87.30481291 53.625 89.625 C52.86356689 89.91930908 52.10213379 90.21361816 51.31762695 90.5168457 C46.53310122 92.37339452 41.80575988 94.32624361 37.140625 96.46875 C32.24641763 97.68337081 27.43894278 95.55000675 22.921875 93.7421875 C21.76888916 93.28448975 20.61590332 92.82679199 19.42797852 92.35522461 C18.21424561 91.86675049 17.0005127 91.37827637 15.75 90.875 C14.49235715 90.37379999 13.23446141 89.87323408 11.97631836 89.37329102 C9.47728449 88.37985658 6.97926041 87.38394773 4.48193359 86.38623047 C-0.14756819 84.54312914 -4.79032647 82.73547815 -9.4375 80.9375 C-13.63341614 79.31170197 -17.82180988 77.67127605 -22 76 C-22.495 58.675 -22.495 58.675 -23 41 C-26.63 39.68 -30.26 38.36 -34 37 C-34.66 36.34 -35.32 35.68 -36 35 C-36 28.78008232 -32.23575633 24.04058931 -29 19 C-28.37867188 18.00355469 -27.75734375 17.00710937 -27.1171875 15.98046875 C-22.68732274 8.90936663 -20.03686293 5.80168912 -12.125 2.875 C-11.04412109 2.45927734 -11.04412109 2.45927734 -9.94140625 2.03515625 C-9.24144531 1.77347656 -8.54148437 1.51179688 -7.8203125 1.2421875 C-7.18367676 1.0035498 -6.54704102 0.76491211 -5.89111328 0.51904297 C-4 0 -4 0 0 0 Z M-17 15 C-19.79453906 17.48403472 -21.40709412 20.22932846 -23.1875 23.5 C-23.71730469 24.4590625 -24.24710938 25.418125 -24.79296875 26.40625 C-26.21095674 28.97650969 -26.21095674 28.97650969 -26 32 C-21.94741557 33.89304397 -17.99899627 35.71726521 -13.6875 36.9375 C-10.44506844 37.87175994 -7.53502877 38.99318219 -4.4375 40.3125 C0.18294732 42.25856482 4.81166678 44.16175609 9.5 45.9375 C10.6446875 46.37964844 11.789375 46.82179688 12.96875 47.27734375 C15.89424311 48.2384772 15.89424311 48.2384772 18.328125 47.32421875 C20.825142 45.34644127 21.21575559 43.00627024 22 40 C22.66 40 23.32 40 24 40 C25.62507196 37.1668838 25.62507196 37.1668838 27 34 C26.505 32.515 26.505 32.515 26 31 C23.35740735 29.7742739 20.79439873 28.73553875 18.0625 27.75 C16.42170917 27.13716256 14.78108911 26.52386774 13.140625 25.91015625 C12.29306641 25.5970752 11.44550781 25.28399414 10.57226562 24.96142578 C8.05283447 24.01974774 5.5484064 23.04674848 3.046875 22.05859375 C1.8556604 21.58824707 1.8556604 21.58824707 0.64038086 21.10839844 C-0.87230128 20.50998868 -2.38453465 19.91044279 -3.89624023 19.30957031 C-8.21680419 17.6162483 -12.51760773 16.20431247 -17 15 Z M73.875 18.125 C72.23731117 18.77037436 70.59928325 19.41488886 68.9609375 20.05859375 C67.71715332 20.54755127 67.71715332 20.54755127 66.44824219 21.04638672 C62.81211802 22.46269117 59.15756697 23.82773737 55.5 25.1875 C49.63076998 27.37348137 43.80265711 29.64267055 38 32 C39.98 35.63 41.96 39.26 44 43 C44.66 43 45.32 43 46 43 C46.66 44.98 47.32 46.96 48 49 C48.84570557 48.65497437 48.84570557 48.65497437 49.70849609 48.30297852 C56.96183825 45.37014325 64.2832165 42.64002185 71.625 39.9375 C73.97140378 39.07174904 76.31775918 38.20586694 78.6640625 37.33984375 C79.75493164 36.93749512 80.84580078 36.53514648 81.96972656 36.12060547 C85.65112399 34.75921212 89.32672689 33.38314605 93 32 C91.64123318 28.34380137 89.98126486 25.13173482 87.9375 21.8125 C85.05960265 17.1192053 85.05960265 17.1192053 84 15 C80.43255724 15 77.15767986 16.81729058 73.875 18.125 Z M29 43 C27.27896313 46.06733184 25.62815731 49.16797677 23.984375 52.27734375 C22 55 22 55 19.66015625 56.0390625 C16.14872509 55.98749963 13.86631648 54.92792042 10.6875 53.4375 C9.45851614 52.87823582 8.22797649 52.32238085 6.99609375 51.76953125 C6.35140137 51.47900879 5.70670898 51.18848633 5.04248047 50.88916016 C1.49238752 49.3436858 -2.12430957 47.98139412 -5.75 46.625 C-6.44134033 46.36259521 -7.13268066 46.10019043 -7.8449707 45.82983398 C-11.32744765 44.46215223 -11.32744765 44.46215223 -15 44 C-15 52.58 -15 61.16 -15 70 C-10.25205399 72.37397301 -6.00894534 74.49260167 -1.125 76.3125 C0.52822266 76.93318359 0.52822266 76.93318359 2.21484375 77.56640625 C2.81280762 77.79086426 3.41077148 78.01532227 4.02685547 78.24658203 C6.23615315 79.09017182 8.4326498 79.96287418 10.62890625 80.83984375 C11.42506348 81.15590576 12.2212207 81.47196777 13.04150391 81.79760742 C14.60670039 82.41976266 16.17026166 83.04605193 17.73193359 83.67700195 C18.45848145 83.96406006 19.1850293 84.25111816 19.93359375 84.546875 C20.57353271 84.80307617 21.21347168 85.05927734 21.87280273 85.32324219 C24.50873901 86.16185292 27.27151458 86.54525243 30 87 C30 72.48 30 57.96 30 43 C29.67 43 29.34 43 29 43 Z M36 43 C36 57.52 36 72.04 36 87 C42.42813389 85.42788652 42.42813389 85.42788652 48.62109375 83.4140625 C49.41193359 83.12273437 50.20277344 82.83140625 51.01757812 82.53125 C51.81615234 82.2321875 52.61472656 81.933125 53.4375 81.625 C54.23220703 81.33367187 55.02691406 81.04234375 55.84570312 80.7421875 C59.77826147 79.28307716 63.64662277 77.7435132 67.47265625 76.0234375 C72.25859724 73.88442332 77.13274374 71.9469025 82 70 C82 61.09 82 52.18 82 43 C79.855 43.86625 77.71 44.7325 75.5 45.625 C72.66952145 46.75725438 69.83537842 47.88007589 67 49 C66.28457031 49.28278809 65.56914063 49.56557617 64.83203125 49.85693359 C62.72476655 50.68458196 60.61325567 51.50028608 58.5 52.3125 C57.85482422 52.56660645 57.20964844 52.82071289 56.54492188 53.08251953 C52.32198616 54.68850155 48.45735029 55.51175931 44 56 C43.59007813 55.14535156 43.18015625 54.29070312 42.7578125 53.41015625 C42.21898438 52.30542969 41.68015625 51.20070313 41.125 50.0625 C40.59132813 48.96035156 40.05765625 47.85820313 39.5078125 46.72265625 C38.28340155 43.90595489 38.28340155 43.90595489 36 43 Z " fill="#AA886D" transform="translate(44,41)"/>
<path d="M0 0 C3.66539338 -0.36285817 5.38194999 -0.49883224 8.30859375 1.86328125 C9.01113281 2.67152344 9.71367188 3.47976562 10.4375 4.3125 C16.03346963 10.21471672 20.29711057 12.11593099 28.4375 12.5 C36.90200076 12.30541378 41.30068891 8.91851537 47 3 C47.66 3 48.32 3 49 3 C49.33 2.01 49.66 1.02 50 0 C51.65 0 53.3 0 55 0 C55.70703125 2.23046875 55.70703125 2.23046875 56 5 C54.63671875 7.23828125 54.63671875 7.23828125 52.6875 9.3125 C52.05199219 10.00988281 51.41648438 10.70726562 50.76171875 11.42578125 C49 13 49 13 47 13 C47 13.66 47 14.32 47 15 C38.81456707 20.73191815 30.08903787 22.08880706 20.25 20.4375 C12.54542415 18.32085828 4.62809707 12.50553267 0 6 C-0.4375 2.5625 -0.4375 2.5625 0 0 Z " fill="#AB886E" transform="translate(49,34)"/>
<path d="M0 0 C0 0.66 0 1.32 0 2 C0.99 2.33 1.98 2.66 3 3 C3.77102804 11.01869159 3.77102804 11.01869159 0.9375 14.625 C-2.80403862 16.3763585 -5.03958207 15.93186304 -9 15 C-9 14.34 -9 13.68 -9 13 C-9.66 13 -10.32 13 -11 13 C-12.54586876 9.90826248 -12.29359521 7.40570448 -12 4 C-8.92690336 -0.99378204 -5.33129622 -0.35541975 0 0 Z " fill="#AC896D" transform="translate(99,8)"/>
<path d="M0 0 C1.875 1.0625 1.875 1.0625 3 3 C3.81024071 6.42794145 4.34856361 8.92526221 3.25 12.3125 C2 14 2 14 -1 16 C-4.39718024 15.8180082 -7.00627459 15.66248361 -9.875 13.75 C-11.39898926 11.37935004 -11.86819981 9.83370413 -12 7 C-9.26265985 0.22182439 -7.21890804 -0.50659004 0 0 Z " fill="#AA886C" transform="translate(63,8)"/>
</svg>
